<?xml version="1.0" encoding="utf-8"?>
<!-- Generator: Adobe Illustrator 27.2.0, SVG Export Plug-In . SVG Version: 6.00 Build 0)  -->
<svg version="1.1" id="Слой_1" xmlns="http://www.w3.org/2000/svg" xmlns:xlink="http://www.w3.org/1999/xlink" x="0px" y="0px"
	 viewBox="0 0 20 20" style="enable-background:new 0 0 20 20;" xml:space="preserve">
<style type="text/css">
	.st0{fill:#FFFFFF;}
	.st1{fill:#347CB3;}
</style>
<g>
	<path class="st0" d="M10.6,15.2c-0.5,0.2-1.2,0.4-2,0.6S7,16.1,6.2,16.1c-1.8,0-3.3-0.5-4.4-1.6S0.2,12,0.2,10
		c0-1.8,0.5-3.3,1.6-4.4S4.4,4,6.3,4c1,0,1.8,0.1,2.4,0.3C9.3,4.4,9.9,4.7,10.6,5v2.7h-0.3C10.2,7.6,10,7.5,9.7,7.3
		C9.4,7.1,9.2,6.9,8.9,6.8c-0.3-0.2-0.6-0.3-1-0.4C7.5,6.2,7.1,6.1,6.7,6.1c-0.5,0-1,0.1-1.4,0.2S4.5,6.8,4.2,7.1
		C3.9,7.4,3.6,7.8,3.5,8.3s-0.3,1-0.3,1.7c0,1.4,0.3,2.4,1,3c0.7,0.6,1.6,1,2.8,1c0.1,0,0.2,0,0.4,0s0.3,0,0.4,0v-2.3H5.5V9.5h5.1
		V15.2z"/>
	<path class="st1" d="M19.8,15.9H12V4.2h2.9v9.5h4.9V15.9z"/>
</g>
</svg>
