<svg version="1.1" xmlns="http://www.w3.org/2000/svg" xmlns:xlink="http://www.w3.org/1999/xlink" width="100" x="0px" y="0px"
	 viewBox="0 0 38.7 9.3" style="enable-background:new 0 0 38.7 9.3;" xml:space="preserve">
<style type="text/css">
	.st0{fill:#FFFFFF;}
	.st1{fill:#347CB3;}
</style>
<g>
	<path class="st0" d="M7.8,8.6C7.4,8.8,6.9,8.9,6.3,9.1S5.1,9.3,4.5,9.3C3.1,9.3,2,8.9,1.2,8.1S0,6.2,0,4.7c0-1.4,0.4-2.5,1.2-3.3
		s1.9-1.2,3.3-1.2c0.7,0,1.3,0.1,1.8,0.2S7.3,0.8,7.8,1v2H7.6C7.5,3,7.3,2.8,7.1,2.7S6.7,2.4,6.5,2.3C6.3,2.2,6.1,2.1,5.8,2
		S5.2,1.9,4.9,1.9c-0.4,0-0.7,0.1-1,0.2S3.3,2.3,3,2.6C2.8,2.8,2.6,3.1,2.5,3.5S2.3,4.2,2.3,4.7c0,1,0.3,1.8,0.8,2.3
		s1.2,0.7,2.1,0.7c0.1,0,0.2,0,0.3,0s0.2,0,0.3,0V6H4V4.3h3.8V8.6z"/>
	<path class="st0" d="M13.8,4.5h-0.2c-0.1,0-0.2,0-0.3-0.1s-0.3,0-0.5,0c-0.2,0-0.4,0-0.7,0.1s-0.5,0.1-0.7,0.2v4.4H9.3V2.5h2.1v0.9
		c0.1-0.1,0.2-0.2,0.4-0.3s0.3-0.2,0.5-0.3c0.1-0.1,0.3-0.2,0.5-0.2s0.4-0.1,0.6-0.1c0.1,0,0.1,0,0.2,0s0.2,0,0.2,0V4.5z"/>
	<path class="st0" d="M18.2,8.4c-0.1,0.1-0.3,0.2-0.4,0.3S17.5,8.9,17.3,9c-0.2,0.1-0.4,0.2-0.5,0.2s-0.4,0.1-0.7,0.1
		c-0.6,0-1.1-0.2-1.5-0.6S14,7.8,14,7.2c0-0.5,0.1-0.9,0.3-1.2s0.5-0.5,0.8-0.7C15.6,5.2,16,5,16.5,5s1.1-0.1,1.7-0.2v0
		c0-0.4-0.1-0.6-0.4-0.8s-0.7-0.2-1.2-0.2c-0.2,0-0.5,0-0.8,0.1s-0.6,0.2-0.9,0.3h-0.2V2.7c0.2-0.1,0.5-0.1,1-0.2s0.9-0.1,1.4-0.1
		c1.1,0,2,0.2,2.5,0.6s0.8,1,0.8,1.7v4.5h-2V8.4z M18.2,7.4V6c-0.3,0-0.6,0.1-0.8,0.1s-0.4,0.1-0.6,0.1c-0.2,0.1-0.3,0.2-0.4,0.3
		s-0.1,0.3-0.1,0.5c0,0.3,0.1,0.5,0.2,0.6s0.4,0.2,0.7,0.2c0.2,0,0.4,0,0.6-0.1S18,7.5,18.2,7.4z"/>
	<path class="st1" d="M27.7,9.1h-5.8V0.4H24v7.1h3.6V9.1z"/>
	<path class="st1" d="M30.7,1.6h-2.2V0h2.2V1.6z M30.6,9.1h-2.1V2.5h2.1V9.1z"/>
	<path class="st1" d="M38.7,5.7c0,1-0.3,1.9-0.8,2.5s-1.2,1-2,1c-0.3,0-0.6,0-0.9-0.1s-0.5-0.2-0.8-0.3l-0.1,0.3h-2V0h2.1v3.2
		c0.3-0.3,0.6-0.5,0.9-0.6s0.7-0.2,1.1-0.2c0.8,0,1.4,0.3,1.8,0.9S38.7,4.7,38.7,5.7z M36.6,5.8c0-0.7-0.1-1.1-0.3-1.4
		s-0.5-0.4-0.9-0.4c-0.2,0-0.4,0-0.5,0.1s-0.4,0.1-0.5,0.3v3.3c0.1,0.1,0.3,0.1,0.4,0.1s0.3,0,0.4,0c0.5,0,0.9-0.2,1.1-0.5
		S36.6,6.4,36.6,5.8z"/>
</g>
</svg>
